<svg width="37" height="20" viewBox="0 0 37 20" fill="none" xmlns="http://www.w3.org/2000/svg">
<path d="M24.9049 9.01856C27.4076 9.01856 29.431 7.00265 29.431 4.50928C29.431 2.01591 27.4076 0 24.9049 0C22.4023 0 20.3789 2.01591 20.3789 4.50928C20.3789 7.00265 22.4023 9.01856 24.9049 9.01856ZM24.9049 2.58886C25.9699 2.58886 26.8325 3.44827 26.8325 4.50928C26.8325 5.57029 25.9699 6.4297 24.9049 6.4297C23.84 6.4297 22.9774 5.57029 22.9774 4.50928C22.9774 3.44827 23.84 2.58886 24.9049 2.58886Z" fill="#A50064"/>
<path d="M24.9049 10.9708C22.4023 10.9708 20.3789 12.9867 20.3789 15.4801C20.3789 17.9735 22.4023 19.9894 24.9049 19.9894C27.4076 19.9894 29.431 17.9735 29.431 15.4801C29.431 12.9867 27.4076 10.9708 24.9049 10.9708ZM24.9049 17.4005C23.84 17.4005 22.9774 16.5411 22.9774 15.4801C22.9774 14.4191 23.84 13.5597 24.9049 13.5597C25.9699 13.5597 26.8325 14.4191 26.8325 15.4801C26.8325 16.5411 25.9699 17.4005 24.9049 17.4005Z" fill="#A50064"/>
<path d="M15.6831 10.9708C14.9163 10.9708 14.2134 11.2255 13.649 11.6499C13.0846 11.2255 12.3711 10.9708 11.615 10.9708C9.74065 10.9708 8.21777 12.4881 8.21777 14.3554V20H10.8163V14.3236C10.8163 13.8992 11.157 13.5597 11.583 13.5597C12.009 13.5597 12.3498 13.8992 12.3498 14.3236V19.9894H14.9483V14.3236C14.9483 13.8992 15.289 13.5597 15.715 13.5597C16.141 13.5597 16.4818 13.8992 16.4818 14.3236V19.9894H19.0696V14.3448C19.0696 12.4881 17.5574 10.9708 15.6831 10.9708Z" fill="#A50064"/>
<path d="M15.682 0C14.9152 0 14.2124 0.254642 13.648 0.679045C13.0835 0.254642 12.37 0 11.6139 0C9.72893 0 8.20605 1.51724 8.20605 3.38461V9.01856H10.8045V3.35278C10.8045 2.92838 11.1453 2.58886 11.5713 2.58886C11.9973 2.58886 12.3381 2.92838 12.3381 3.35278V9.01856H14.9365V3.35278C14.9365 2.92838 15.2773 2.58886 15.7033 2.58886C16.1293 2.58886 16.4701 2.92838 16.4701 3.35278V9.01856H19.0686V3.38461C19.0686 1.51724 17.5563 0 15.682 0Z" fill="#A50064"/>
</svg>
