<svg width="36" height="19" viewBox="0 0 36 19" fill="none" xmlns="http://www.w3.org/2000/svg">
<path d="M7.46555 9.25305C7.46555 9.72997 7.46555 10.0818 7.46555 10.4414C7.46555 10.8089 7.46555 11.1686 7.46555 11.536C7.46555 12.0755 7.35815 12.6462 7.97183 13.0919C7.32747 13.0919 6.79816 13.0919 6.20749 13.0919C6.82885 12.3491 6.51433 11.4891 6.56803 10.6838C6.60639 10.1522 6.5757 9.6127 6.5757 9.08105C6.5757 8.4243 6.69077 7.7441 6.1001 7.22027C6.12311 7.19681 6.13845 7.17336 6.16147 7.1499C6.7368 7.1499 7.31212 7.14209 7.88745 7.15772C8.0332 7.16554 8.10224 7.33755 8.18662 7.447C8.99976 8.46339 9.81289 9.4876 10.626 10.5118C10.7027 10.6056 10.7564 10.7385 10.9329 10.7698C10.9329 9.7847 10.9329 8.81522 10.9329 7.83792C10.9329 7.57992 10.672 7.43137 10.6107 7.15772C11.14 7.15772 11.6616 7.15772 12.1756 7.15772C12.1832 7.18118 12.2063 7.21245 12.1986 7.22027C11.792 7.61119 11.815 8.11938 11.8227 8.62758C11.838 10.0349 11.8304 11.4422 11.8227 12.8495C11.8227 13.2639 11.7767 13.2952 11.3778 13.2092C10.7488 13.0762 10.2578 12.7401 9.86658 12.224C9.17619 11.3327 8.47045 10.4649 7.77239 9.58142C7.70335 9.50324 7.61897 9.42506 7.46555 9.25305Z" fill="#ED1C24"/>
<path d="M18.8354 13.1598C18.1988 13.1598 17.646 13.1598 17.0933 13.1598C17.8638 11.8095 18.2156 10.3209 18.7767 8.91361C18.9024 8.59637 19.0029 8.27913 19.1201 7.96189C19.229 7.63652 19.2541 7.31927 18.8605 7.00203C19.6813 7.00203 20.3932 6.9939 21.1051 7.01017C21.3229 7.0183 21.3061 7.23793 21.3647 7.38435C21.9594 8.90548 22.5541 10.4347 23.1403 11.964C23.2995 12.387 23.5172 12.7693 23.869 13.1516C22.9226 13.1516 22.0348 13.1516 21.1386 13.1516C21.415 12.7449 21.348 11.7769 21.0213 11.3946C20.9627 11.3214 20.8873 11.3051 20.8036 11.3051C20.2759 11.3051 19.7399 11.3051 19.2123 11.297C19.0615 11.297 18.9777 11.3621 18.9359 11.4922C18.827 11.8095 18.7097 12.1267 18.6008 12.4521C18.5003 12.7042 18.6427 12.9076 18.8354 13.1598ZM19.9912 8.57197C19.7567 8.92175 19.6897 9.25526 19.5891 9.56437C19.2793 10.4917 19.2876 10.4917 20.3094 10.4591C20.3346 10.4591 20.3681 10.4591 20.3932 10.4591C20.6026 10.4673 20.6696 10.3697 20.6026 10.1826C20.4016 9.67011 20.2089 9.15765 19.9912 8.57197Z" fill="#005AAB"/>
<path d="M14.8095 10.5353C15.527 9.9828 15.6734 9.31653 15.4757 8.5365C15.3879 8.18712 15.1609 7.96774 14.8315 7.89461C14.685 7.86211 14.5972 7.91086 14.5972 8.09774C14.6045 9.47903 14.5972 10.8603 14.6118 12.2416C14.6118 12.5666 14.7217 12.8673 14.9266 13.1598C14.2092 13.1598 13.5356 13.1598 12.8181 13.1598C13.0963 12.7779 13.1183 12.3635 13.1183 11.9491C13.0963 10.5597 13.1549 9.16215 13.089 7.77273C13.0743 7.5046 13.0011 7.27709 12.7815 7.01708C13.0524 7.01708 13.2647 7.00896 13.4697 7.01708C14.275 7.04959 15.0804 6.91958 15.8784 7.09021C16.6032 7.25272 17.0352 7.78086 17.0864 8.504C17.145 9.38965 16.8302 9.99092 16.1273 10.3078C15.7466 10.4784 15.344 10.5516 14.8095 10.5353Z" fill="#005AAB"/>
<path d="M0 7.18867C0.61885 7.18867 1.20555 7.19644 1.79225 7.18867C2.00925 7.18867 2.00925 7.35192 2.05748 7.47631C2.51558 8.69684 2.97369 9.92514 3.43984 11.1457C3.48003 11.2623 3.4961 11.3944 3.65684 11.4955C3.97028 10.7026 4.26765 9.92514 4.57306 9.14774C4.68558 8.8601 4.78202 8.55691 4.91061 8.27704C5.04724 7.9894 5.09547 7.71731 4.89454 7.43744C4.78202 7.28196 4.80613 7.20422 5.03921 7.1809C6.26083 7.09538 6.26887 7.09538 5.85094 8.22262C5.26424 9.82408 4.66147 11.4255 4.07477 13.027C4.00243 13.2214 3.92206 13.2835 3.69703 13.2291C2.80492 12.9959 2.15392 12.545 1.81636 11.6588C1.25377 10.1739 0.626887 8.71239 0 7.18867Z" fill="#ED1C24"/>
<path d="M23.2834 7.00935C24.0401 7.00935 24.7117 7.01747 25.3918 7.00122C25.5874 7.00122 25.6639 7.09874 25.7489 7.22876C26.1315 7.81385 26.5225 8.39082 26.8966 8.97592C27.0496 9.21158 27.1517 9.21971 27.3047 8.98405C27.5002 8.6915 27.7298 8.40708 27.9338 8.11453C28.2654 7.63507 28.2654 7.4888 27.9933 7.00122C28.6054 7.00122 29.2175 7.00122 29.8211 7.00122C29.8722 7.00122 29.9317 7.00935 30.0592 7.0256C29.7361 7.46442 29.4471 7.87074 29.158 8.27706C28.6989 8.91091 28.2314 9.53664 27.7723 10.1705C27.7128 10.2599 27.6192 10.3574 27.6277 10.4549C27.6532 11.3569 27.4067 12.2915 27.9763 13.161C27.1517 13.161 26.3525 13.161 25.5194 13.161C26.0209 12.2996 25.7319 11.3813 25.7999 10.5037C25.8084 10.4305 25.7574 10.3493 25.7149 10.2843C25.0348 9.32535 24.3631 8.37457 23.683 7.43192C23.5895 7.29377 23.462 7.18813 23.2834 7.00935Z" fill="#005AAB"/>
<path d="M33.5779 10.4339C33.0667 10.7873 32.6813 10.7873 32.1779 10.4186C31.8633 10.1881 31.5644 10.0191 31.1318 10.0037C30.4711 9.98836 29.9992 9.41987 29.897 8.67469C29.8026 8.02938 30.1644 7.39944 30.7622 7.1536C31.4622 6.86168 32.233 6.99996 32.6341 7.47626C33.106 8.03706 33.1375 8.85138 32.6734 9.46596C32.5004 9.68875 32.5476 9.80398 32.7364 9.95763C32.9723 10.1574 33.2397 10.3187 33.5779 10.4339ZM30.715 8.42118C30.7307 8.68237 30.7779 8.96662 30.9352 9.22781C31.0846 9.47365 31.2891 9.64266 31.6038 9.60425C31.9341 9.55815 32.0442 9.32 32.115 9.05112C32.1858 8.78224 32.1543 8.51336 32.0993 8.25217C31.997 7.72209 31.6981 7.42248 31.3127 7.44553C30.9588 7.46858 30.715 7.83732 30.715 8.42118Z" fill="#ED1C24"/>
<path d="M33.5512 7.0075C33.9944 7.0075 34.4826 6.98827 34.9634 7.01712C35.2789 7.03635 35.5193 7.25753 35.6094 7.64218C35.6996 8.02683 35.6545 8.43072 35.369 8.67112C35.1512 8.84422 35.2038 8.99808 35.3089 9.20002C35.5418 9.65199 35.7146 10.1424 36 10.5559C35.016 11.0656 34.8056 10.0943 34.4526 9.2481C34.3549 9.777 34.3549 10.1809 34.4901 10.6232C34.1671 10.7002 33.8516 10.6425 33.5361 10.6521C33.6338 9.43081 33.6113 8.23839 33.5512 7.0075ZM34.37 8.15184C34.4451 8.33455 34.2648 8.69036 34.5127 8.69997C34.738 8.70959 34.8507 8.39225 34.8432 8.10376C34.8432 7.82489 34.7531 7.52678 34.5202 7.56525C34.2573 7.60371 34.4526 7.9499 34.37 8.15184Z" fill="#ED1C24"/>
</svg>
